# xmcd
#
# Track frame offsets: 
#        150
#        2150
#        4376
#        25138
#        41313
#        58114
#        74676
#        90642
#        107123
#        123900
#        140475
#        157155
#        172105
#        188682
#
# Disc length: 2665 seconds
#
# Revision: 0
# Processed by: cddbd v1.5.2PL0 Copyright (c) Steve Scherf et al.
# Submitted via: ExactAudioCopy v0.95b3
#
DISCID=c00a670e
DTITLE=Jimi Hendrix  - Moonbeams and Fairytales - Disc 06
DYEAR=1900
DGENRE=
TTITLE0=Manic Depression
TTITLE1=Manic Depression
TTITLE2=Manic Depression
TTITLE3=Manic Depression
TTITLE4=Manic Depression
TTITLE5=Manic Depression
TTITLE6=Manic Depression
TTITLE7=Stone Free
TTITLE8=Like a Rolling Stone
TTITLE9=Like a Rolling Stone
TTITLE10=Hey Joe
TTITLE11=Purple Haze
TTITLE12=Hey Joe
TTITLE13=Purple Haze
EXTD=
EXTT0=
EXTT1=
EXTT2=
EXTT3=
EXTT4=
EXTT5=
EXTT6=
EXTT7=
EXTT8=
EXTT9=
EXTT10=
EXTT11=
EXTT12=
EXTT13=
PLAYORDER=
